<svg id="elQ6SHFvKCD1" xmlns="http://www.w3.org/2000/svg" xmlns:xlink="http://www.w3.org/1999/xlink" viewBox="0 300 1920 1080" shape-rendering="geometricPrecision" text-rendering="geometricPrecision"><line x1="-22.549688" y1="0" x2="22.549688" y2="0" transform="translate(752.131611 636.152027)" fill="none" stroke="#f5f6f8" stroke-width="5"/><line x1="0" y1="88.945989" x2="0" y2="-88.945988" transform="translate(752.131611 547.206039)" fill="none" stroke="#eaedf4" stroke-width="5"/><line x1="-64.243278" y1="0" x2="64.243278" y2="0" transform="translate(816.37489 458.260051)" fill="none" stroke="#f2f5fa" stroke-width="5"/><line x1="0" y1="-12.036281" x2="0" y2="12.036281" transform="translate(880.618168 470.296332)" fill="none" stroke="#f8f8fa" stroke-width="5"/><ellipse rx="19.678873" ry="19.678872" transform="translate(880.618168 502.011485)" fill="none" stroke="#faf9f9" stroke-width="5"/><line x1="0" y1="-33.271496" x2="0" y2="33.271496" transform="translate(880.618168 554.961853)" fill="none" stroke="#fefeff" stroke-width="5"/><line x1="12.19535" y1="-10.368795" x2="-12.19535" y2="10.368795" transform="translate(868.422818 598.602144)" fill="none" stroke="#f4f5f8" stroke-width="5"/><line x1="-9.839437" y1="-10.368795" x2="9.839437" y2="10.368795" transform="translate(890.457605 598.602144)" fill="none" stroke="#f8f9fb" stroke-width="5"/><line x1="-9.839437" y1="-9.694043" x2="9.839437" y2="9.694043" transform="translate(890.457605 556.900083)" fill="none" stroke="#fafafa" stroke-width="5"/><line x1="9.839436" y1="-9.694043" x2="-9.839437" y2="9.694043" transform="translate(870.778732 556.900083)" fill="none" stroke="#f8f9fb" stroke-width="5"/><line x1="-12.62288" y1="0" x2="12.622881" y2="0" transform="translate(951.800704 636.152027)" fill="none" stroke="#fbfcfd" stroke-width="5"/><line x1="-12.62288" y1="0" x2="12.62288" y2="0" transform="translate(991.472614 636.152027)" fill="none" stroke="#f4f5f8" stroke-width="5"/><line x1="-10.819612" y1="0" x2="10.819612" y2="0" transform="translate(1025.734718 636.152027)" fill="none" stroke="#f2f3f4" stroke-width="5"/><line x1="-13.073697" y1="0" x2="13.073697" y2="0" transform="translate(1064.054175 636.152027)" fill="none" stroke="#f6f8fa" stroke-width="5"/><line x1="-11.721246" y1="0" x2="11.721246" y2="0" transform="translate(1103.275268 636.152027)" fill="none" stroke="#f6f8fa" stroke-width="5"/></svg>
