<svg id="ekVaxr67iS51" xmlns="http://www.w3.org/2000/svg" xmlns:xlink="http://www.w3.org/1999/xlink" viewBox="0 0 300 300" shape-rendering="geometricPrecision" text-rendering="geometricPrecision"><defs><filter id="ekVaxr67iS54-filter" x="-150%" width="400%" y="-150%" height="400%"><feComponentTransfer id="ekVaxr67iS54-filter-opacity-0" result="result"><feFuncA id="ekVaxr67iS54-filter-opacity-0-A" type="table" tableValues="0 1"/></feComponentTransfer></filter></defs><rect width="202.134146" height="134.451219" rx="11" ry="11" transform="translate(50.304878 64.710366)" fill="#fffefe" stroke="#0c0000" stroke-width="2"/><line x1="-101.52439" y1="0" x2="101.52439" y2="0" transform="translate(150.914634 185.442074)" opacity="0.9" fill="#fff" stroke="#000" stroke-width="2" stroke-linecap="square" stroke-linejoin="round"/><rect width="183.841463" height="96.95122" rx="12" ry="12" transform="translate(59.451221 74.771341)" filter="url(#ekVaxr67iS54-filter)" fill="#fff" stroke="#000" stroke-width="2"/><ellipse rx="2.743902" ry="3.20122" transform="translate(115.243902 109.070122)" stroke-width="0"/><ellipse rx="2.743902" ry="3.20122" transform="translate(186.585366 109.070122)" stroke-width="0"/><line x1="-4.115854" y1="0" x2="4.115853" y2="0" transform="translate(151.371952 144.283537)" fill="none" stroke="#000" stroke-width="3"/><line x1="5.030488" y1="12.347561" x2="-5.030488" y2="-12.347561" transform="translate(93.292683 51.448171)" fill="none" stroke="#000" stroke-width="3"/><line x1="-4.115854" y1="12.347561" x2="4.115854" y2="-12.347561" transform="translate(204.420732 51.448171)" fill="none" stroke="#000" stroke-width="3"/><ellipse rx="4.115854" ry="3.658537" transform="translate(88.262195 35.442073)" fill="#000205" stroke-width="0"/><ellipse rx="4.115854" ry="3.658537" transform="translate(208.536586 39.10061)" stroke-width="0"/><ellipse rx="9.832316" ry="2.972561" transform="translate(108.155487 131.935976)" fill="#fee4ff" stroke-width="0"/><ellipse rx="9.832316" ry="2.972561" transform="translate(193.67378 131.935976)" fill="#fee4ff" stroke-width="0"/><line x1="0" y1="-8.689025" x2="0" y2="8.689024" transform="translate(137.195122 207.85061)" fill="none" stroke="#000205" stroke-width="2"/><line x1="0" y1="-8.689025" x2="0" y2="8.689024" transform="translate(160.060976 207.85061)" fill="none" stroke="#000" stroke-width="2"/><line x1="-53.04878" y1="-0.457317" x2="53.04878" y2="0.457317" transform="matrix(.999889-.014877 0.014877 0.999889 150 217.786093)" fill="none" stroke="#000" stroke-width="2"/></svg>
