<svg id="ez6UcLuqtDK1" xmlns="http://www.w3.org/2000/svg" xmlns:xlink="http://www.w3.org/1999/xlink" viewBox="0 300 1920 1080" shape-rendering="geometricPrecision" text-rendering="geometricPrecision"><rect width="222.731277" height="276.29956" rx="33" ry="33" transform="matrix(.300406 0 0 0.351739 783.30071 428.216403)" fill="#fff" stroke-width="0"/><rect width="222.731277" height="276.29956" rx="33" ry="33" transform="matrix(.300406 0 0 0.351739 875.789627 428.216403)" fill="#fff" stroke-width="0"/><rect width="222.731277" height="276.29956" rx="33" ry="33" transform="matrix(.300406 0 0 0.351739 969.092518 428.216403)" fill="#fff" stroke-width="0"/><rect width="222.731277" height="276.29956" rx="33" ry="33" transform="matrix(.300406 0 0 0.351739 969.092518 554.598267)" fill="#fff" stroke-width="0"/><rect width="222.731277" height="276.29956" rx="33" ry="33" transform="matrix(.300406 0 0 0.351739 875.789627 554.598267)" fill="#fff" stroke-width="0"/><rect width="222.731277" height="276.29956" rx="33" ry="33" transform="matrix(.300406 0 0 0.351739 783.30071 554.598267)" fill="#fff" stroke-width="0"/><rect width="222.731277" height="276.29956" rx="33" ry="33" transform="matrix(.300406 0 0 0.351739 1069.789478 554.598267)" fill="#fff" stroke-width="0"/><rect width="222.731277" height="276.29956" rx="33" ry="33" transform="matrix(.300406 0 0 0.351739 1069.789478 428.216403)" fill="#fff" stroke-width="0"/></svg>
