<?xml version="1.0"?>
<svg width="300" height="300" xmlns="http://www.w3.org/2000/svg" xmlns:svg="http://www.w3.org/2000/svg">
 <defs>
  <filter height="400%" id="ekVaxr67iS54-filter" width="400%" x="-150%" y="-150%"/>
 </defs>
 <g class="layer">
  <title>Layer 1</title>
  <rect fill="#fffefe" height="134.45" id="svg_1" rx="11" ry="11" stroke="#0c0000" stroke-width="2" transform="translate(50.304878 64.710366)" width="202.13"/>
  <line fill="#fff" id="svg_2" opacity="0.9" stroke="#000" stroke-linecap="square" stroke-linejoin="round" stroke-width="2" transform="translate(150.914634 185.442074)" x1="-101.52" x2="101.52" y1="0" y2="0"/>
  <rect fill="#fff" filter="url(#ekVaxr67iS54-filter)" height="96.95" id="svg_3" rx="12" ry="12" stroke="#000" stroke-width="2" transform="translate(59.451221 74.771341)" width="183.84"/>
  <ellipse id="svg_4" rx="2.74" ry="3.2" stroke-width="0" transform="translate(115.243902 109.070122)"/>
  <ellipse id="svg_5" rx="2.74" ry="3.2" stroke-width="0" transform="translate(186.585366 109.070122)"/>
  <line fill="none" id="svg_7" stroke="#000" stroke-width="3" transform="translate(93.292683 51.448171)" x1="5.03" x2="-5.03" y1="12.35" y2="-12.35"/>
  <line fill="none" id="svg_8" stroke="#000" stroke-width="3" transform="translate(204.420732 51.448171)" x1="-4.12" x2="4.12" y1="12.35" y2="-12.35"/>
  <ellipse fill="#000205" id="svg_9" rx="4.12" ry="3.66" stroke-width="0" transform="translate(88.262195 35.442073)"/>
  <ellipse id="svg_10" rx="4.12" ry="3.66" stroke-width="0" transform="translate(208.536586 39.10061)"/>
  <ellipse fill="#fee4ff" id="svg_11" rx="9.83" ry="2.97" stroke-width="0" transform="translate(108.155487 131.935976)"/>
  <ellipse fill="#fee4ff" id="svg_12" rx="9.83" ry="2.97" stroke-width="0" transform="translate(193.67378 131.935976)"/>
  <line fill="none" id="svg_13" stroke="#000205" stroke-width="2" transform="translate(137.195122 207.85061)" x1="0" x2="0" y1="-8.69" y2="8.69"/>
  <line fill="none" id="svg_14" stroke="#000" stroke-width="2" transform="translate(160.060976 207.85061)" x1="0" x2="0" y1="-8.69" y2="8.69"/>
  <line fill="none" id="svg_15" stroke="#000" stroke-width="2" transform="matrix(.999889-.014877 0.014877 0.999889 150 217.786093)" x1="-53.05" x2="53.05" y1="-0.46" y2="0.46"/>
  <line fill="none" fill-opacity="null" id="svg_16" stroke="#000" stroke-dasharray="null" stroke-linecap="null" stroke-linejoin="null" stroke-opacity="null" stroke-width="3" x1="149" x2="131" y1="142" y2="159"/>
  <line fill="none" fill-opacity="null" id="svg_18" stroke="#000" stroke-dasharray="null" stroke-linecap="null" stroke-linejoin="null" stroke-opacity="null" stroke-width="3" x1="147" x2="165" y1="142" y2="160"/>
 </g>
</svg>