<svg id="eIy3YbGFkoD1" xmlns="http://www.w3.org/2000/svg" xmlns:xlink="http://www.w3.org/1999/xlink" viewBox="0 300 1920 1080" shape-rendering="geometricPrecision" text-rendering="geometricPrecision"><line x1="0" y1="-84.76386" x2="0" y2="84.76386" transform="translate(978.43867 511.56747)" fill="none" stroke="#f6f6f8" stroke-width="5"/><line x1="0" y1="-84.76386" x2="0" y2="84.76386" transform="translate(925.214851 511.56747)" fill="none" stroke="#f2f3f6" stroke-width="5"/><line x1="0" y1="-84.76386" x2="0" y2="84.76386" transform="matrix(0 1-1 0 952.239537 484.542785)" fill="none" stroke="#f1f3f6" stroke-width="5"/><line x1="0" y1="-84.76386" x2="0" y2="84.76386" transform="matrix(0 1-1 0 952.239537 542.31901)" fill="none" stroke="#eff2f8" stroke-width="5"/><ellipse rx="12.187824" ry="13.304646" transform="matrix(1.351856 0 0 1.225019 952.239537 457.499803)" fill="#fdfdfd" stroke-width="0"/><ellipse rx="12.187824" ry="13.304646" transform="matrix(1.351856 0 0 1.225019 1010.466256 511.56747)" fill="#fdfdfd" stroke-width="0"/><ellipse rx="12.187824" ry="13.304646" transform="matrix(1.351856 0 0 1.225019 1010.466256 573.95324)" fill="#fdfdfd" stroke-width="0"/><ellipse rx="12.187824" ry="13.304646" transform="matrix(1.351856 0 0 1.225019 952.239537 573.95324)" fill="#fdfdfd" stroke-width="0"/><ellipse rx="12.187824" ry="13.304646" transform="matrix(1.351856 0 0 1.225019 894.012819 573.95324)" fill="#fdfdfd" stroke-width="0"/></svg>
